<svg width="303" height="135" viewBox="0 0 303 135" fill="none" xmlns="http://www.w3.org/2000/svg">
<path fill-rule="evenodd" clip-rule="evenodd" d="M175.783 87.354C178.158 89.221 181.348 90.1918 185.355 90.1918L185.207 90.3412C185.361 90.3412 185.509 90.3351 185.652 90.3229V90.3412C190.624 90.3412 195.076 89.2957 199.083 87.0552C203.089 84.8148 206.428 81.7529 209.026 77.7949C210.213 86.1591 214.516 90.3412 221.862 90.3412C222.275 90.3412 222.646 90.2797 222.977 90.1644C226.882 89.9554 230.097 88.5567 232.622 86.0844C235.293 83.3959 237.445 79.0645 239.003 73.1647L242.268 60.245C242.936 57.7806 243.678 55.9136 244.568 54.7934C245.458 53.6731 246.497 53.0757 247.759 53.0757C249.317 53.0757 250.356 53.6731 250.949 54.9427C251.543 56.2123 251.84 58.0046 251.84 60.3197V88.9223C253.101 89.2957 254.437 89.5197 255.847 89.5197C256.514 89.5197 257.182 89.5197 257.924 89.3703C258.592 89.221 259.26 89.0715 259.854 88.9223V77.7949C259.854 72.866 260.447 68.5345 261.486 64.8752C262.525 61.2159 264.083 58.3033 266.086 56.2123C268.09 54.1212 270.39 53.0757 272.987 53.0757C278.033 53.0757 280.556 56.3616 280.556 62.7841V74.2849C280.556 84.9642 284.859 90.2665 293.467 90.2665H293.541C295.248 90.2665 296.88 89.9678 298.364 89.2957C299.848 88.6235 301.035 87.7274 302 86.6818C302.074 85.5616 301.777 84.4414 301.11 83.2466C300.442 82.0517 299.626 81.2302 298.587 80.7821C297.771 81.3795 297.028 81.8276 296.212 82.1264C295.396 82.4251 294.728 82.5744 294.06 82.5744C292.131 82.5744 290.796 81.8276 289.905 80.4087C289.089 78.9898 288.644 76.6 288.644 73.3141V62.8588C288.644 57.3325 287.382 53.0757 284.859 50.0138C282.337 46.9519 278.701 45.4583 274.1 45.4583C270.835 45.4583 267.941 46.2798 265.344 47.7734C262.747 49.267 260.596 51.4327 258.963 54.2706C258.221 51.5821 256.96 49.4164 255.105 47.8481C253.25 46.2798 251.024 45.4583 248.352 45.4583C241.377 45.4583 236.628 50.0885 234.106 59.4235L231.434 69.8788C230.321 74.4343 228.986 77.6455 227.502 79.5872C226.018 81.5289 224.311 82.4997 222.382 82.4997C222.15 82.4997 221.931 82.5154 221.724 82.5464C219.742 82.389 218.347 81.5626 217.484 79.9606C216.52 78.1683 216 75.7038 216 72.5673V46.7279C214.665 46.3545 213.329 46.1304 211.994 46.1304C211.252 46.1304 210.51 46.1304 209.768 46.2798C209.1 46.4292 208.432 46.5785 207.913 46.7279V54.4946C207.913 59.8716 207.022 64.7258 205.093 68.9826C203.164 73.2394 200.567 76.6 197.302 78.9898C193.963 81.4542 190.253 82.6491 186.023 82.6491C185.763 82.6491 185.52 82.6707 185.291 82.7155C183.344 82.64 181.787 82.0549 180.681 81.0808C179.493 80.0353 178.603 78.6164 178.158 76.9734C177.713 75.4051 177.416 73.2394 177.193 70.5509C176.971 67.8624 176.896 63.979 176.896 58.8261C181.2 57.0338 184.984 54.42 188.323 51.134C191.662 47.8481 194.26 43.89 196.189 39.2599C198.118 34.7044 199.083 29.5514 199.083 23.9504C199.083 16.7064 197.895 11.0307 195.373 6.92329C192.85 2.81587 189.288 0.724823 184.688 0.724823C182.387 0.724823 180.235 1.1729 178.306 2.14375C176.377 3.03991 174.819 4.6082 173.483 6.77393C172.593 8.19285 171.925 9.76114 171.331 11.5535C170.738 13.3458 170.292 15.4368 169.921 17.976C169.55 20.5151 169.328 23.577 169.179 27.311C169.031 30.97 169.031 35.5249 169.031 40.8265V53.001C166.731 53.5985 164.431 54.1212 162.204 54.4946C160.417 54.7944 158.678 54.9498 156.909 54.9994C155.19 52.2154 152.915 49.9977 150.184 48.2962C147.067 46.3545 143.506 45.3836 139.499 45.3836C135.492 45.3836 131.93 46.3545 128.74 48.2962C125.623 50.2379 123.1 52.8517 121.245 56.2123C119.39 59.5729 118.5 63.3816 118.5 67.7131C118.5 70.0281 118.797 72.2685 119.39 74.4343L106.628 84.0538V47.4C104.698 45.9811 101.953 45.3836 98.5396 45.6077C96.9071 47.0266 94.8295 48.2962 92.3066 49.3417C89.7838 50.4619 86.9641 51.2834 83.9961 51.8808C81.5686 52.3694 79.0419 52.6583 76.4971 52.7472C75.0485 50.9884 73.3313 49.5108 71.3819 48.2962C68.2654 46.3545 64.7037 45.3836 60.6968 45.3836C56.69 45.3836 53.1283 46.3545 49.9376 48.2962C46.8212 50.2379 44.2983 52.8517 42.4433 56.2123C40.5882 59.5729 39.6978 63.3816 39.6978 67.713C39.6978 70.0281 39.9946 72.2685 40.5882 74.4343L29.8544 81.4697C30.3324 77.9164 30.571 73.6208 30.571 68.4445V2.08286C29.6064 1.5601 28.4192 1.26138 26.9351 1.11202C25.4511 0.96266 24.2639 0.96266 23.2993 1.11202C20.7764 7.83325 17.4373 14.6292 13.4305 21.4251C9.42359 28.221 4.8973 34.6435 0 40.6179C0.51941 41.8128 1.26143 42.933 2.30025 43.8292C3.33907 44.8 4.45209 45.3974 5.71351 45.6962H5.78771C6.97494 44.4266 8.60737 42.4849 10.6108 39.8711C12.54 37.2573 14.6177 34.2701 16.7695 30.9095C18.9214 27.5489 20.8506 24.2629 22.5572 20.977V47.2026C7.79115 56.687 0.445209 70.8435 0.445209 81.7468C0.445209 86.6757 1.78084 90.4844 4.37789 93.2476C6.97494 96.0107 10.685 97.4297 15.3597 97.4297C19.8682 97.4297 23.3696 96.4104 25.8705 93.1994C26.359 93.0577 26.8924 92.7578 27.4934 92.2537H27.345L43.7789 81.6783C45.7081 84.2921 48.0826 86.3831 50.9764 87.8767C53.8703 89.445 57.061 90.1918 60.6226 90.1918C64.7037 90.1918 68.2654 89.221 71.3819 87.2793C74.4983 85.3376 76.947 82.7238 78.802 79.2885C80.657 75.8532 81.5475 72.0445 81.5475 67.713C81.5475 65.0008 81.1692 62.4934 80.4492 60.1728C82.8288 59.9233 85.2187 59.5198 87.632 58.9754C91.9356 58.0046 95.5715 56.735 98.6138 55.0921V88.6982C83.8477 98.1826 76.5017 108.339 76.5017 119.242C76.5017 124.171 77.8374 128.055 80.4344 130.818C83.0315 133.581 86.7415 135 91.4162 135C101.582 135 106.628 127.98 106.628 114.015V93.7493C106.841 93.6128 107.063 93.4485 107.295 93.2537H107.147L122.581 81.6783C124.51 84.2921 126.884 86.3831 129.778 87.8767C132.672 89.445 135.863 90.1918 139.425 90.1918C143.506 90.1918 147.067 89.221 150.184 87.2793C153.3 85.3376 155.749 82.7238 157.604 79.2885C159.459 75.8532 160.349 72.0445 160.349 67.7131C160.349 65.7022 160.141 63.804 159.74 62.011C160.748 61.9365 161.816 61.8208 162.946 61.664C165.098 61.3652 167.176 60.9172 169.105 60.4691C169.179 64.2031 169.254 67.265 169.402 69.6548C169.476 72.0445 169.699 73.9115 169.921 75.4051C170.144 76.8241 170.441 78.1683 170.738 79.3632C171.702 82.7985 173.409 85.487 175.783 87.354ZM177.119 50.6113V41.2762C177.119 35.2271 177.193 30.2982 177.342 26.6389C177.49 22.9796 177.787 19.9923 178.158 17.8266C178.529 15.5862 179.048 13.7939 179.642 12.375C180.829 9.61178 182.61 8.26753 184.91 8.26753C186.914 8.26753 188.472 9.61178 189.659 12.2256C190.772 14.8394 191.366 18.6481 191.366 23.577C191.366 29.9248 190.03 35.4512 187.359 40.2307C184.688 45.0102 181.274 48.4455 177.119 50.6113ZM8.45897 81.5975C8.45897 84.1366 9.05258 86.1529 10.2398 87.6466C11.427 89.1402 13.0595 89.8123 15.1371 89.8123C20.1828 89.8123 22.7057 83.5 22.7057 68.5192V56.4629C13.2079 63.1841 8.45897 74.2041 8.45897 81.5228V81.5975ZM60.6226 82.4998C64.4069 82.4998 67.4492 81.1555 69.7494 78.467C72.0497 75.7785 73.1627 72.1939 73.1627 67.713C73.1627 65.5473 72.8659 63.4563 72.1981 61.5893C68.6364 61.4399 65.4457 60.7678 62.5519 59.4235C59.658 58.0793 57.432 56.287 55.7253 54.0466C53.3509 55.0921 51.4959 56.8097 50.086 59.1995C48.7504 61.5893 48.0084 64.5018 48.0084 67.8624C48.0084 72.1939 49.1214 75.7785 51.4217 78.467C53.7219 81.1555 56.7642 82.4998 60.5484 82.4998H60.6226ZM86.2221 125.068C85.0349 123.574 84.4413 121.558 84.4413 119.018V118.944C84.4413 111.625 89.1902 104.605 98.688 97.8839V113.94C98.688 122.827 96.1651 127.233 91.1194 127.233C89.0418 127.233 87.4094 126.561 86.2221 125.068ZM139.425 82.4998C143.209 82.4998 146.251 81.1555 148.551 78.467C150.852 75.7785 151.965 72.1939 151.965 67.7131C151.965 65.5473 151.668 63.4563 151 61.5893C147.438 61.4399 144.248 60.7678 141.354 59.4235C138.46 58.0793 136.234 56.287 134.527 54.0466C132.153 55.0921 130.298 56.8097 128.888 59.1995C127.552 61.5893 126.81 64.5018 126.81 67.8624C126.81 72.1939 127.923 75.7785 130.224 78.467C132.524 81.1555 135.566 82.4998 139.35 82.4998H139.425Z" fill="#3B3B3B"/>
<path d="M98.5396 31.9412C99.7268 33.1361 101.211 33.7335 102.843 33.7335V33.6588C104.55 33.6588 105.96 33.1361 107.147 31.9412C108.26 30.821 108.854 29.402 108.854 27.6097C108.854 25.8174 108.26 24.3238 107.147 23.2036C106.034 22.0834 104.476 21.4859 102.769 21.4859C101.062 21.4859 99.6526 22.0834 98.4654 23.2036C97.3524 24.3238 96.7587 25.8174 96.7587 27.6097C96.7587 29.3274 97.3523 30.7463 98.5396 31.9412Z" fill="#3B3B3B"/>
<path d="M212.068 33.7335C210.435 33.7335 208.951 33.1361 207.764 31.9412C206.577 30.7463 205.983 29.3274 205.983 27.6097C205.983 25.8174 206.577 24.3238 207.69 23.2036C208.877 22.0834 210.287 21.4859 211.994 21.4859C213.7 21.4859 215.258 22.0834 216.371 23.2036C217.484 24.3238 218.078 25.8174 218.078 27.6097C218.078 29.402 217.484 30.821 216.371 31.9412C215.184 33.1361 213.774 33.6588 212.068 33.6588V33.7335Z" fill="#3B3B3B"/>
</svg>
